<svg data-v-423bf9ae="" xmlns="http://www.w3.org/2000/svg" viewBox="0 0 388 90" class="iconLeftSlogan"><!----><!----><!----><g data-v-423bf9ae="" id="c775ff4f-3bd5-44c2-b978-6ea53d50e242" fill="#250A05" transform="matrix(6.109979629516602,0,0,6.109979629516602,112.38289642333984,-11.670059204101562)"><path d="M0.49 6.62L0.49 1.94L3.46 1.94Q5.33 1.94 6.03 3.21L6.03 3.21Q6.62 4.20 6.62 6.48L6.62 6.48L6.91 6.48L6.91 8.82L4.02 8.82L4.02 8.56L4.92 8.56L4.92 6.48L4.66 6.48L4.66 5.63Q4.66 4.18 4.02 3.79L4.02 3.79Q3.64 3.57 2.80 3.57L2.80 3.57L2.41 3.57L2.41 6.43L2.67 6.43L2.67 8.82L0.71 8.82L0.71 6.62L0.49 6.62ZM4.71 8.09L4.71 8.09L4.81 8.09L4.81 8.34L4.86 8.34L4.86 8.42L4.81 8.42L4.81 8.52L4.71 8.52L4.71 8.42L4.53 8.42L4.53 8.36Q4.71 8.11 4.71 8.09ZM4.63 8.34L4.63 8.34L4.71 8.34L4.71 8.24Q4.69 8.24 4.63 8.34ZM2.90 8.54L2.77 8.33L2.86 8.33Q2.88 8.33 2.97 8.44L2.97 8.44Q3.04 8.36 3.04 8.33L3.04 8.33L3.14 8.33L3.14 8.34Q3.04 8.50 3.04 8.54L3.04 8.54L3.17 8.75L3.04 8.75Q3.04 8.70 2.95 8.62L2.95 8.62Q2.89 8.74 2.85 8.75L2.85 8.75L2.75 8.75Q2.86 8.55 2.90 8.54L2.90 8.54ZM-0.39 9.13L-0.39 8.82L0.50 8.82L0.50 9.13L2.67 9.13L2.67 9.78L4.02 9.78L4.02 9.13L6.91 9.13L6.91 9.78L4.92 9.78L4.92 11.52L2.67 11.52L2.67 11.73L0.51 11.73Q0.49 11.73 0.49 11.70L0.49 11.70L0.49 9.13L-0.39 9.13ZM2.67 9.13L2.67 8.82L4.02 8.82L4.02 9.13L2.67 9.13ZM6.91 9.13L6.91 8.82L8.84 8.82L8.84 9.13L6.91 9.13ZM5.15 9.84L5.15 9.84L5.27 9.84Q5.39 10.16 5.41 10.28L5.41 10.28L5.33 10.28Q5.30 10.28 5.28 10.19L5.28 10.19L5.15 10.19Q5.12 10.19 5.11 10.28L5.11 10.28L5.00 10.28L5.00 10.27Q5.00 10.25 5.15 9.84ZM5.53 9.84L5.53 9.84L5.63 9.84L5.71 10.12L5.73 10.12Q5.73 10.09 5.81 9.84L5.81 9.84L5.91 9.84Q5.91 9.89 5.78 10.28L5.78 10.28L5.68 10.28Q5.64 10.28 5.53 9.84ZM6.08 10.28L6.08 9.84L6.19 9.84L6.19 10.28L6.08 10.28ZM6.38 10.28L6.38 9.84L6.57 9.84Q6.78 9.84 6.78 10.08L6.78 10.08Q6.78 10.25 6.57 10.28L6.57 10.28L6.38 10.28ZM6.60 9.94L6.50 9.94L6.50 10.19L6.60 10.19Q6.62 10.19 6.67 10.12L6.67 10.12L6.67 10.00Q6.67 9.98 6.60 9.94L6.60 9.94ZM5.22 9.97L5.20 9.97Q5.20 9.99 5.17 10.10L5.17 10.10L5.25 10.10Q5.22 9.99 5.22 9.97L5.22 9.97ZM7.29 6.33L7.29 1.94L9.18 1.94L9.18 7.12L8.29 7.12L8.29 7.39L9.18 7.39L9.18 8.36Q9.18 9.69 9.65 9.91L9.65 9.91Q9.89 10.06 10.25 10.06L10.25 10.06L10.83 10.06L10.83 8.34L11.34 8.34L11.34 1.94L13.21 1.94L13.21 7.96L12.54 7.96L12.54 8.39L13.21 8.39Q13.20 8.61 13.20 8.72L13.20 8.72L13.20 10.64L12.22 10.64L12.22 11.73L7.84 11.73L7.84 10.38L7.44 10.38L7.44 6.33L7.29 6.33ZM9.18 7.39L9.18 7.12L10.25 7.12L10.25 7.39L9.18 7.39ZM15.00 7.57L16.68 1.96L18.33 1.96Q18.36 2.10 19.93 7.29L19.93 7.29L20.23 7.29L20.23 10.51L19.55 10.51L19.55 10.76L20.23 10.76L20.23 11.45L18.41 11.45L18.41 9.47L16.19 9.47L16.19 10.32L15.28 10.32L15.28 11.73L13.63 11.73L13.63 11.63L13.76 11.63L13.76 10.32L14.44 10.32L14.44 7.57L15.00 7.57ZM17.49 4.71L17.45 4.71L17.45 4.72Q17.24 5.89 16.63 8.40L16.63 8.40L18.16 8.40L18.16 7.29L18.03 7.29Q17.49 4.92 17.49 4.71L17.49 4.71ZM13.15 7.57L13.15 7.28L14.44 7.28L14.44 7.57L13.15 7.57ZM18.41 11.73L18.41 11.57L20.60 11.57L20.60 11.73L18.41 11.73ZM20.32 8.85L20.32 1.91L22.27 1.91L22.27 5.94L21.89 5.94L21.89 10.10L24.79 10.10L24.79 10.97L24.22 10.97L24.22 11.17L24.79 11.17L24.79 11.73L22.91 11.73L22.91 11.58L20.34 11.58Q20.32 11.42 20.32 11.33L20.32 11.33L20.32 9.14L20.82 9.14L20.82 8.85L20.32 8.85ZM24.79 11.17L24.79 10.97L25.50 10.97L25.50 11.17L24.79 11.17ZM29.05 8.93L26.60 8.93Q26.33 8.93 26.33 8.74L26.33 8.74L26.33 8.18Q26.33 7.98 26.61 7.98L26.61 7.98L29.04 7.98Q29.32 7.98 29.32 8.18L29.32 8.18L29.32 8.74Q29.32 8.93 29.05 8.93L29.05 8.93ZM30.48 1.93L30.48 1.93L33.26 1.93Q35.12 1.93 35.62 2.87L35.62 2.87Q35.91 3.36 35.91 4.21L35.91 4.21L35.91 4.89Q35.91 5.86 35.07 6.45L35.07 6.45Q35.36 6.50 35.79 6.89L35.79 6.89L36.00 6.89Q36.42 7.31 36.54 7.71L36.54 7.71Q36.58 7.85 36.58 7.86L36.58 7.86L36.85 7.86L36.85 8.03L35.96 8.03L35.96 7.86L34.13 7.86L34.13 7.34L32.34 7.34L32.34 10.19L33.46 10.19L33.46 9.99L34.13 9.99L34.13 8.03L35.96 8.03L35.96 9.75L36.16 9.75L36.16 10.84L35.55 10.84L35.55 11.09L36.16 11.09L36.16 11.55L33.84 11.55L33.84 11.73L31.32 11.73L31.32 11.55L30.77 11.55L30.77 10.04L31.52 10.04L31.52 9.64L30.77 9.64Q30.75 8.49 30.75 7.93L30.75 7.93L30.75 7.21L30.11 7.21L30.11 7.02L30.75 7.02L30.75 6.64L30.45 6.64L30.45 1.97Q30.45 1.93 30.48 1.93ZM32.69 3.59L32.38 3.59L32.38 6.02L32.79 6.02Q33.53 6.02 33.76 5.77L33.76 5.77Q34.00 5.57 34.00 4.70L34.00 4.70L34.00 4.66Q34.00 3.91 33.76 3.76L33.76 3.76Q33.61 3.59 32.69 3.59L32.69 3.59ZM31.67 7.02L30.77 7.02L30.77 7.21L31.67 7.21L31.67 7.02ZM30.40 7.69L30.40 7.24L30.73 7.24L30.73 7.31Q30.73 7.34 30.70 7.34L30.70 7.34L30.50 7.34L30.50 7.41L30.68 7.41Q30.71 7.42 30.71 7.44L30.71 7.44L30.71 7.48Q30.71 7.51 30.68 7.51L30.68 7.51L30.50 7.51L30.50 7.59L30.73 7.59L30.73 7.66Q30.73 7.69 30.70 7.69L30.70 7.69L30.40 7.69ZM33.21 8.03L33.21 7.86L34.13 7.86L34.13 8.03L33.21 8.03ZM36.22 8.06L36.22 8.06L36.28 8.06Q36.31 8.07 36.31 8.09L36.31 8.09L36.31 8.38Q36.29 8.53 36.16 8.53L36.16 8.53Q36.00 8.50 36.00 8.38L36.00 8.38L36.00 8.36Q36.01 8.33 36.04 8.33L36.04 8.33L36.07 8.33Q36.11 8.33 36.13 8.43L36.13 8.43L36.19 8.43L36.19 8.09Q36.20 8.06 36.22 8.06ZM36.07 8.65L36.07 8.65L36.21 8.65Q36.44 8.65 36.44 8.90L36.44 8.90Q36.44 9.07 36.22 9.10L36.22 9.10L36.04 9.10L36.04 8.68Q36.05 8.65 36.07 8.65ZM36.21 8.75L36.16 8.75L36.16 9.00L36.22 9.00Q36.33 9.00 36.33 8.90L36.33 8.90L36.33 8.87Q36.33 8.75 36.21 8.75L36.21 8.75ZM36.07 9.24L36.07 9.24L36.33 9.24Q36.36 9.24 36.36 9.27L36.36 9.27L36.36 9.34L36.16 9.34L36.16 9.42L36.33 9.42L36.33 9.50L36.16 9.50L36.16 9.65Q36.16 9.69 36.13 9.69L36.13 9.69L36.04 9.69L36.04 9.27Q36.05 9.24 36.07 9.24ZM33.73 9.57L33.73 9.50L34.08 9.50L34.08 9.58L33.87 9.86L34.10 9.86L34.10 9.92Q34.10 9.95 34.06 9.95L34.06 9.95L33.75 9.95Q33.71 9.95 33.71 9.92L33.71 9.92L33.71 9.87L33.93 9.60L33.76 9.60Q33.73 9.60 33.73 9.57L33.73 9.57ZM32.39 9.86L32.39 9.79L32.41 9.79Q32.72 9.88 32.72 9.92L32.72 9.92L32.72 9.95Q32.69 10.00 32.41 10.10L32.41 10.10L32.39 10.07L32.39 10.06Q32.39 10.01 32.59 9.95L32.59 9.95Q32.59 9.92 32.39 9.86L32.39 9.86ZM37.45 1.93L37.45 1.93L39.29 1.93Q39.32 1.94 39.32 1.97L39.32 1.97L39.32 6.73Q39.32 6.76 39.29 6.76L39.29 6.76L39.07 6.76L39.07 11.70Q39.07 11.73 39.04 11.73L39.04 11.73L37.45 11.73Q37.41 11.73 37.41 11.70L37.41 11.70L37.41 6.64L36.92 6.64Q36.89 6.64 36.89 6.61L36.89 6.61L36.89 6.40Q36.89 6.36 36.92 6.36L36.92 6.36L37.41 6.36L37.41 1.97Q37.42 1.93 37.45 1.93ZM38.37 6.36L37.43 6.36L37.43 6.64L38.37 6.64L38.37 6.36ZM39.33 3.57L39.33 1.93L45.08 1.93L45.08 3.57L43.18 3.57L43.18 10.34L44.04 10.34L44.04 10.54L43.18 10.54L43.18 11.29L42.66 11.29L42.66 11.55L43.03 11.55L43.03 11.73L41.28 11.73Q41.25 11.73 41.25 11.70L41.25 11.70L41.25 3.57L39.33 3.57ZM43.16 10.34L42.50 10.34L42.50 10.54L43.16 10.54L43.16 10.34Z"></path></g><defs data-v-423bf9ae=""><linearGradient data-v-423bf9ae="" gradientTransform="rotate(25)" id="c70341ba-53df-4859-9a09-bfb5bd9076ab" x1="0%" y1="0%" x2="100%" y2="0%"><stop data-v-423bf9ae="" offset="0%" style="stop-color: rgb(48, 34, 58); stop-opacity: 1;"></stop><stop data-v-423bf9ae="" offset="100%" style="stop-color: rgb(241, 56, 0); stop-opacity: 1;"></stop></linearGradient></defs><g data-v-423bf9ae="" id="55c082c3-6c22-410d-b61f-fe598a53f6ee" transform="matrix(2.8125,0,0,2.8125,0,0)" stroke="none" fill="url(#c70341ba-53df-4859-9a09-bfb5bd9076ab)"><path d="M0 32h32V0H0v32zm19.377-19.492l6.936-6.936v20.855h-6.936V12.508zM5.688 5.572l6.936 6.936v13.919H5.688V5.572z"></path></g><!----><g data-v-423bf9ae="" id="618be0a9-a614-4ce7-8bbf-7e7768c13c5a" fill="#250A05" transform="matrix(1.8128600120544434,0,0,1.8128600120544434,109.72806549072266,56.53743362426758)"><path d="M0.15 6.32L0.15 1.93L2.04 1.93L2.04 7.11L1.15 7.11L1.15 7.39L2.04 7.39L2.04 8.35Q2.04 9.68 2.51 9.91L2.51 9.91Q2.75 10.05 3.10 10.05L3.10 10.05L3.68 10.05L3.68 8.34L4.20 8.34L4.20 1.93L6.08 1.93L6.08 7.95L5.40 7.95L5.40 8.39L6.08 8.39Q6.06 8.61 6.06 8.71L6.06 8.71L6.06 10.63L5.08 10.63L5.08 11.73L0.70 11.73L0.70 10.38L0.29 10.38L0.29 6.32L0.15 6.32ZM2.04 7.39L2.04 7.11L3.10 7.11L3.10 7.39L2.04 7.39ZM5.17 10.71L5.17 10.71L5.24 10.71Q5.28 10.71 5.32 10.94L5.32 10.94L5.33 10.94Q5.40 10.74 5.40 10.71L5.40 10.71L5.50 10.71Q5.39 11.09 5.35 11.09L5.35 11.09L5.30 11.09Q5.27 11.09 5.17 10.71ZM6.70 1.96L6.70 1.96L8.70 1.96Q8.74 1.96 9.34 3.53L9.34 3.53Q9.39 3.59 10.60 6.62L10.60 6.62L11.11 6.62L11.11 1.96L12.85 1.96L12.85 7.51L13.05 7.51L13.05 9.67L12.35 9.67L12.35 10.08L13.05 10.08L13.05 11.37L10.43 11.37L10.43 9.73L9.97 9.73Q9.02 7.44 8.70 6.56L8.70 6.56L8.70 4.92L8.45 4.92L8.45 9.93L8.05 9.93L8.05 11.66L6.42 11.66L6.42 7.94L6.71 7.94L6.71 7.92Q6.70 3.09 6.70 1.96ZM10.56 6.62L9.64 6.62L9.64 6.98L10.73 6.98Q10.60 6.62 10.56 6.62L10.56 6.62ZM11.92 6.62L11.12 6.62L11.12 6.98L10.74 6.98Q11.09 7.85 11.16 8.11L11.16 8.11L11.17 8.11L11.17 8.07Q11.12 7.18 11.12 6.98L11.12 6.98L11.92 6.98L11.92 6.62ZM10.43 11.73L10.43 11.55L13.60 11.55L13.60 11.73L10.43 11.73ZM13.74 8.85L13.74 1.91L15.69 1.91L15.69 5.94L15.31 5.94L15.31 10.10L18.21 10.10L18.21 10.97L17.64 10.97L17.64 11.17L18.21 11.17L18.21 11.73L16.33 11.73L16.33 11.58L13.75 11.58Q13.74 11.42 13.74 11.33L13.74 11.33L13.74 9.14L14.23 9.14L14.23 8.85L13.74 8.85ZM18.21 11.17L18.21 10.97L18.92 10.97L18.92 11.17L18.21 11.17ZM22.71 1.95L22.71 1.95Q24.81 1.95 25.48 3.42L25.48 3.42Q25.85 4.14 25.85 6.19L25.85 6.19L25.85 6.23L25.13 6.23L25.13 6.56L25.85 6.56L25.85 10.10L25.38 10.10L25.38 11.37L24.42 11.37L24.42 11.73L21.10 11.73L21.10 11.37L20.70 11.37L20.70 10.10L19.84 10.10L19.84 9.10L20.35 9.10L20.35 8.57L19.84 8.57L19.84 9.10L18.63 9.10L18.63 8.57L19.55 8.57Q19.54 7.38 19.54 6.74L19.54 6.74L19.54 5.91Q19.54 3.58 20.32 2.80L20.32 2.80Q21.04 1.95 22.71 1.95ZM21.51 5.32L21.51 5.32L21.53 5.32L21.51 5.35L21.51 6.23L20.78 6.23L20.78 6.56L21.51 6.56Q21.50 8.67 21.50 9.75L21.50 9.75L21.50 10.10L23.13 10.10L23.13 9.56L23.88 9.56L23.88 9.54Q23.88 8.54 23.87 6.75L23.87 6.75Q23.87 6.68 23.88 6.38L23.88 6.38Q23.88 4.45 23.66 4.01L23.66 4.01Q23.43 3.58 22.80 3.58L22.80 3.58L22.57 3.58Q21.82 3.58 21.64 4.24L21.64 4.24Q21.56 4.56 21.51 5.32ZM25.85 6.56L25.85 6.23L27.03 6.23L27.03 6.56L25.85 6.56ZM30.40 1.93L30.40 1.93Q32.45 1.93 32.98 3.22L32.98 3.22Q33.13 3.53 33.13 3.63L33.13 3.63L32.27 3.63L32.27 3.89L33.20 3.89L33.20 3.88Q33.20 3.81 33.13 3.63L33.13 3.63L34.71 3.63L34.71 3.89L33.22 3.89L33.22 3.91Q33.33 4.46 33.38 5.09L33.38 5.09Q33.38 5.13 31.58 5.22L31.58 5.22L31.58 5.21Q31.58 3.58 30.47 3.58L30.47 3.58L30.26 3.58Q29.43 3.58 29.24 4.29L29.24 4.29Q29.10 4.89 29.10 5.87L29.10 5.87L29.10 7.21L29.08 7.40L28.45 7.40L28.45 7.71L29.08 7.71L29.08 10.08L31.71 10.08L31.71 7.62L33.23 7.62L33.23 10.08L32.39 10.08L32.39 11.60L30.63 11.60L30.63 11.73L29.26 11.73L29.26 11.60L27.88 11.60L27.88 10.84L28.80 10.84L28.80 10.51L27.41 10.51L27.41 9.39L26.82 9.39L26.82 8.00L27.14 8.00Q27.12 7.16 27.12 6.66L27.12 6.66Q27.12 4.42 27.33 3.84L27.33 3.84Q27.54 3.17 27.99 2.69L27.99 2.69Q28.80 1.93 30.40 1.93ZM33.74 10.60L33.74 2.00L35.66 2.00L35.66 3.83Q35.66 4.74 35.62 5.80L35.62 5.80L35.62 5.82L35.64 5.82Q35.88 5.37 36.93 3.51L36.93 3.51Q37.47 2.57 37.47 2.09L37.47 2.09L37.47 2.00L39.44 2.00L39.44 2.04Q39.44 2.98 38.67 4.09L38.67 4.09L37.51 5.78L38.65 8.21L39.68 8.21L39.68 8.50L38.52 8.50L38.52 8.52Q38.80 9.13 38.88 9.24L38.88 9.24L39.09 9.24L39.09 10.12L39.39 10.12L39.39 11.72Q38.89 11.73 38.65 11.73L38.65 11.73L38.18 11.73Q37.93 11.73 37.49 11.72L37.49 11.72L37.49 10.65L37.06 10.65L37.06 9.24L36.82 9.24L36.56 8.50L38.51 8.50L38.51 8.21L36.72 8.21Q36.72 8.18 36.41 7.23L36.41 7.23L36.39 7.23Q36.23 7.54 35.74 8.21L35.74 8.21L36.56 8.21L36.56 8.50L35.66 8.50L35.66 8.98L35.54 8.98L35.54 11.20L35.66 11.20L35.66 11.70Q35.66 11.73 35.62 11.73L35.62 11.73L33.78 11.73Q33.74 11.73 33.74 11.70L33.74 11.70L33.74 10.93L34.61 10.93L34.61 10.60L33.74 10.60ZM35.72 8.21L34.53 8.21L34.53 8.50L35.64 8.50Q35.64 8.45 35.72 8.21L35.72 8.21ZM40.53 1.93L40.53 1.93L42.38 1.93Q42.40 1.94 42.40 1.97L42.40 1.97L42.40 6.73Q42.40 6.76 42.38 6.76L42.38 6.76L42.16 6.76L42.16 11.70Q42.16 11.73 42.12 11.73L42.12 11.73L40.53 11.73Q40.50 11.73 40.50 11.70L40.50 11.70L40.50 6.64L40.00 6.64Q39.97 6.64 39.97 6.61L39.97 6.61L39.97 6.40Q39.98 6.36 40.00 6.36L40.00 6.36L40.50 6.36L40.50 1.97Q40.50 1.93 40.53 1.93ZM41.45 6.36L40.51 6.36L40.51 6.64L41.45 6.64L41.45 6.36ZM42.98 1.96L42.98 1.96L44.98 1.96Q45.02 1.96 45.62 3.53L45.62 3.53Q45.67 3.59 46.88 6.62L46.88 6.62L47.39 6.62L47.39 1.96L49.14 1.96L49.14 7.51L49.33 7.51L49.33 9.67L48.63 9.67L48.63 10.08L49.33 10.08L49.33 11.37L46.72 11.37L46.72 9.73L46.25 9.73Q45.31 7.44 44.98 6.56L44.98 6.56L44.98 4.92L44.73 4.92L44.73 9.93L44.34 9.93L44.34 11.66L42.70 11.66L42.70 7.94L43.00 7.94L43.00 7.92Q42.98 3.09 42.98 1.96ZM46.85 6.62L45.92 6.62L45.92 6.98L47.01 6.98Q46.88 6.62 46.85 6.62L46.85 6.62ZM48.20 6.62L47.41 6.62L47.41 6.98L47.02 6.98Q47.37 7.85 47.44 8.11L47.44 8.11L47.46 8.11L47.46 8.07Q47.41 7.18 47.41 6.98L47.41 6.98L48.20 6.98L48.20 6.62ZM46.72 11.73L46.72 11.55L49.88 11.55L49.88 11.73L46.72 11.73ZM53.66 1.96L53.66 1.96L53.68 1.96Q55.86 1.96 56.35 3.38L56.35 3.38Q56.57 3.91 56.57 4.87L56.57 4.87L54.99 5.09L54.97 5.05L54.97 5.02Q54.97 3.86 54.19 3.64L54.19 3.64Q53.96 3.58 53.61 3.56L53.61 3.56Q52.77 3.56 52.52 4.47L52.52 4.47Q52.38 5.07 52.38 5.89L52.38 5.89L52.38 6.66Q52.38 7.99 52.41 8.67L52.41 8.67L52.81 8.67L52.81 10.03L54.76 10.03L54.76 7.70L53.53 7.70L53.53 6.45L57.22 6.45L57.22 6.72L56.74 6.72L56.74 8.16L55.75 8.16L55.75 8.62L56.23 8.62L56.23 11.39L50.95 11.39L50.95 9.91L50.35 9.91L50.35 9.78L50.61 9.78L50.61 9.64L50.95 9.64L50.95 9.08L50.03 9.08L50.03 7.90L50.46 7.90Q50.45 7.38 50.45 7.31L50.45 7.31Q50.45 4.20 50.78 3.56L50.78 3.56Q50.89 3.15 51.35 2.67L51.35 2.67Q52.04 1.96 53.66 1.96ZM52.31 11.73L52.31 11.54L54.32 11.54L54.32 11.73L52.31 11.73ZM61.08 10.60L61.08 1.93L63.01 1.93L63.01 3.77Q63.01 4.70 62.97 5.76L62.97 5.76L62.97 5.78L62.99 5.78Q63.23 5.33 64.29 3.46L64.29 3.46Q64.84 2.51 64.84 2.02L64.84 2.02L64.84 1.93L66.81 1.93L66.81 1.98Q66.81 2.92 66.04 4.03L66.04 4.03L64.87 5.74L66.02 8.19L67.06 8.19L67.06 8.48L65.89 8.48L65.89 8.50Q66.17 9.11 66.25 9.23L66.25 9.23L66.47 9.23L66.47 10.12L66.77 10.12L66.77 11.72Q66.26 11.73 66.02 11.73L66.02 11.73L65.54 11.73Q65.29 11.73 64.85 11.72L64.85 11.72L64.85 10.64L64.42 10.64L64.42 9.23L64.18 9.23L63.92 8.48L65.87 8.48L65.87 8.19L64.08 8.19Q64.08 8.16 63.77 7.20L63.77 7.20L63.75 7.20Q63.58 7.51 63.09 8.19L63.09 8.19L63.92 8.19L63.92 8.48L63.01 8.48L63.01 8.96L62.89 8.96L62.89 11.20L63.01 11.20L63.01 11.70Q63.01 11.73 62.97 11.73L62.97 11.73L61.11 11.73Q61.08 11.73 61.08 11.70L61.08 11.70L61.08 10.92L61.95 10.92L61.95 10.60L61.08 10.60ZM66.07 7.69L66.07 7.69L66.17 7.69Q66.21 7.69 66.27 7.96L66.27 7.96Q66.29 7.96 66.37 7.69L66.37 7.69L66.51 7.69L66.51 8.11Q66.51 8.14 66.49 8.14L66.49 8.14L66.42 8.14L66.42 7.88L66.40 7.88Q66.40 7.90 66.32 8.14L66.32 8.14L66.27 8.14Q66.22 8.14 66.17 7.91L66.17 7.91L66.15 7.91L66.15 8.11Q66.15 8.14 66.12 8.14L66.12 8.14L66.07 8.14Q66.04 8.14 66.04 8.11L66.04 8.11L66.04 7.72Q66.04 7.69 66.07 7.69ZM63.08 8.19L61.87 8.19L61.87 8.48L62.99 8.48Q62.99 8.43 63.08 8.19L63.08 8.19ZM64.44 10.73L64.44 10.71L64.54 10.71Q64.56 10.71 64.64 10.82L64.64 10.82Q64.70 10.71 64.72 10.71L64.72 10.71L64.82 10.71L64.82 10.73L64.69 10.92Q64.72 10.93 64.84 11.14L64.84 11.14L64.70 11.14L64.64 11.01Q64.54 11.14 64.52 11.14L64.52 11.14L64.42 11.14Q64.54 10.93 64.57 10.92L64.57 10.92L64.44 10.73ZM67.46 1.96L67.46 1.96L69.46 1.96Q69.50 1.96 70.10 3.53L70.10 3.53Q70.15 3.59 71.36 6.62L71.36 6.62L71.87 6.62L71.87 1.96L73.62 1.96L73.62 7.51L73.81 7.51L73.81 9.67L73.11 9.67L73.11 10.08L73.81 10.08L73.81 11.37L71.20 11.37L71.20 9.73L70.73 9.73Q69.79 7.44 69.46 6.56L69.46 6.56L69.46 4.92L69.21 4.92L69.21 9.93L68.82 9.93L68.82 11.66L67.18 11.66L67.18 7.94L67.48 7.94L67.48 7.92Q67.46 3.09 67.46 1.96ZM71.33 6.62L70.40 6.62L70.40 6.98L71.49 6.98Q71.36 6.62 71.33 6.62L71.33 6.62ZM72.68 6.62L71.89 6.62L71.89 6.98L71.50 6.98Q71.85 7.85 71.92 8.11L71.92 8.11L71.93 8.11L71.93 8.07Q71.89 7.18 71.89 6.98L71.89 6.98L72.68 6.98L72.68 6.62ZM71.20 11.73L71.20 11.55L74.36 11.55L74.36 11.73L71.20 11.73ZM78.26 1.95L78.26 1.95Q80.37 1.95 81.03 3.42L81.03 3.42Q81.41 4.14 81.41 6.19L81.41 6.19L81.41 6.23L80.68 6.23L80.68 6.56L81.41 6.56L81.41 10.10L80.93 10.10L80.93 11.37L79.98 11.37L79.98 11.73L76.66 11.73L76.66 11.37L76.25 11.37L76.25 10.10L75.40 10.10L75.40 9.10L75.91 9.10L75.91 8.57L75.40 8.57L75.40 9.10L74.19 9.10L74.19 8.57L75.11 8.57Q75.09 7.38 75.09 6.74L75.09 6.74L75.09 5.91Q75.09 3.58 75.88 2.80L75.88 2.80Q76.60 1.95 78.26 1.95ZM77.07 5.32L77.07 5.32L77.09 5.32L77.07 5.35L77.07 6.23L76.34 6.23L76.34 6.56L77.07 6.56Q77.05 8.67 77.05 9.75L77.05 9.75L77.05 10.10L78.69 10.10L78.69 9.56L79.44 9.56L79.44 9.54Q79.44 8.54 79.43 6.75L79.43 6.75Q79.43 6.68 79.44 6.38L79.44 6.38Q79.44 4.45 79.21 4.01L79.21 4.01Q78.98 3.58 78.36 3.58L78.36 3.58L78.12 3.58Q77.38 3.58 77.20 4.24L77.20 4.24Q77.12 4.56 77.07 5.32ZM81.41 6.56L81.41 6.23L82.58 6.23L82.58 6.56L81.41 6.56ZM82.91 7.14L82.14 1.95L83.99 1.95L84.53 6.86L85.05 6.86Q85.07 6.80 85.50 1.95L85.50 1.95L87.84 1.95Q88.29 6.96 88.31 7.05L88.31 7.05L89.08 7.05Q89.59 2.65 89.66 1.95L89.66 1.95L91.51 1.95L90.73 7.14L90.59 7.14L90.59 8.10L89.20 8.10L89.20 8.34L90.30 8.34L90.30 9.80L89.24 9.80L89.24 11.09L88.95 11.09L88.95 11.65L87.76 11.65L87.76 8.48L86.99 8.48L86.99 7.34Q86.99 7.20 86.69 4.58L86.69 4.58L86.65 4.58L86.65 4.60L86.40 6.86L86.53 6.86L86.53 10.36L85.39 10.36L85.39 11.73L83.92 11.73L83.92 10.36L83.36 10.36L83.36 7.14L82.91 7.14ZM91.49 8.85L91.49 1.91L93.43 1.91L93.43 5.94L93.05 5.94L93.05 10.10L95.96 10.10L95.96 10.97L95.38 10.97L95.38 11.17L95.96 11.17L95.96 11.73L94.08 11.73L94.08 11.58L91.50 11.58Q91.49 11.42 91.49 11.33L91.49 11.33L91.49 9.14L91.98 9.14L91.98 8.85L91.49 8.85ZM95.96 11.17L95.96 10.97L96.67 10.97L96.67 11.17L95.96 11.17ZM97.34 6.80L97.34 2.00L102.14 2.00L102.14 3.60Q102.14 3.63 102.10 3.63L102.10 3.63L99.26 3.63L99.26 5.74L101.81 5.74L101.81 5.76Q101.81 5.84 101.78 6.79L101.78 6.79Q101.76 6.79 101.76 6.80L101.76 6.80L101.88 6.80L101.88 7.29L99.67 7.29L99.67 9.29L99.07 9.29L99.07 9.49L99.67 9.49L99.67 10.10L102.17 10.10L102.17 10.32L101.97 10.32L101.97 11.52L98.98 11.52L98.98 11.73L97.56 11.73L97.56 8.24L97.34 8.24L97.34 7.01L95.79 7.01L95.79 6.80L97.34 6.80ZM98.16 6.80L97.36 6.80L97.36 7.01L98.16 7.01L98.16 6.80ZM103.39 6.62L103.39 1.96L106.37 1.96Q108.23 1.96 108.92 3.22L108.92 3.22Q109.53 4.20 109.53 6.49L109.53 6.49L109.82 6.49L109.82 8.83L106.92 8.83L106.92 8.56L107.83 8.56L107.83 6.49L107.56 6.49L107.56 5.63Q107.56 4.19 106.92 3.79L106.92 3.79Q106.54 3.58 105.71 3.58L105.71 3.58L105.31 3.58L105.31 6.44L105.58 6.44L105.58 8.83L103.63 8.83L103.63 6.62L103.39 6.62ZM102.52 9.13L102.52 8.83L103.40 8.83L103.40 9.13L105.58 9.13L105.58 9.78L106.92 9.78L106.92 9.13L109.82 9.13L109.82 9.78L107.83 9.78L107.83 11.52L105.58 11.52L105.58 11.73L103.42 11.73Q103.39 11.73 103.39 11.70L103.39 11.70L103.39 9.13L102.52 9.13ZM105.58 9.13L105.58 8.83L106.92 8.83L106.92 9.13L105.58 9.13ZM109.82 9.13L109.82 8.83L111.74 8.83L111.74 9.13L109.82 9.13ZM113.65 1.96L113.65 1.96L113.67 1.96Q115.86 1.96 116.34 3.38L116.34 3.38Q116.57 3.91 116.57 4.87L116.57 4.87L114.98 5.09L114.96 5.05L114.96 5.02Q114.96 3.86 114.18 3.64L114.18 3.64Q113.95 3.58 113.60 3.56L113.60 3.56Q112.76 3.56 112.51 4.47L112.51 4.47Q112.37 5.07 112.37 5.89L112.37 5.89L112.37 6.66Q112.37 7.99 112.40 8.67L112.40 8.67L112.81 8.67L112.81 10.03L114.75 10.03L114.75 7.70L113.52 7.70L113.52 6.45L117.22 6.45L117.22 6.72L116.73 6.72L116.73 8.16L115.74 8.16L115.74 8.62L116.22 8.62L116.22 11.39L110.94 11.39L110.94 9.91L110.34 9.91L110.34 9.78L110.60 9.78L110.60 9.64L110.94 9.64L110.94 9.08L110.02 9.08L110.02 7.90L110.46 7.90Q110.44 7.38 110.44 7.31L110.44 7.31Q110.44 4.20 110.78 3.56L110.78 3.56Q110.88 3.15 111.34 2.67L111.34 2.67Q112.03 1.96 113.65 1.96ZM112.30 11.73L112.30 11.54L114.31 11.54L114.31 11.73L112.30 11.73ZM117.93 6.80L117.93 2.00L122.72 2.00L122.72 3.60Q122.72 3.63 122.68 3.63L122.68 3.63L119.84 3.63L119.84 5.74L122.39 5.74L122.39 5.76Q122.39 5.84 122.36 6.79L122.36 6.79Q122.34 6.79 122.34 6.80L122.34 6.80L122.46 6.80L122.46 7.29L120.25 7.29L120.25 9.29L119.66 9.29L119.66 9.49L120.25 9.49L120.25 10.10L122.75 10.10L122.75 10.32L122.55 10.32L122.55 11.52L119.56 11.52L119.56 11.73L118.14 11.73L118.14 8.24L117.93 8.24L117.93 7.01L116.37 7.01L116.37 6.80L117.93 6.80ZM118.74 6.80L117.94 6.80L117.94 7.01L118.74 7.01L118.74 6.80Z"></path></g></svg>